<?xml version="1.0" encoding="utf-8"?>
<!-- Generator: Adobe Illustrator 26.2.1, SVG Export Plug-In . SVG Version: 6.00 Build 0)  -->
<svg version="1.1" id="Layer_1" xmlns="http://www.w3.org/2000/svg" xmlns:xlink="http://www.w3.org/1999/xlink" x="0px" y="0px"
	 viewBox="0 0 519.5 157.1" style="enable-background:new 0 0 519.5 157.1;" xml:space="preserve">
<style type="text/css">
	.st0{fill:none;}
</style>
<g>
	<path class="st0" d="M87.1,133L87.1,133c-0.3,1-0.6,2.1-0.9,3.1l-1.7,5h5.2l-1.7-5C87.6,135,87.3,134,87.1,133z"/>
	<path class="st0" d="M296.9,135.8c0-2.2-1.6-3.2-4-3.2c-1.1,0-1.8,0.1-2.2,0.2v6.3h2.3C295.4,139.1,296.9,137.8,296.9,135.8z"/>
	<path class="st0" d="M362.6,133L362.6,133c-0.3,1-0.6,2.1-0.9,3.1l-1.7,5h5.2l-1.7-5C363.1,135,362.8,134,362.6,133z"/>
	<path class="st0" d="M9.9,2.7v145.9h213.7c-3.5,0-6.2-2-6.2-7.4V131h2.3v10.2c0,3.9,1.7,5.5,4,5.5c2.6,0,4.2-1.7,4.2-5.5V131h2.3
		v10.1c0,5.3-2.8,7.5-6.5,7.5h286V2.7H9.9z M22.9,148.3h-2.3l-5.5-8.8c-1.2-1.9-2.4-3.9-3.2-5.8l-0.1,0c0.1,2.2,0.2,4.3,0.2,7.1v7.4
		H9.9V131h2.4l5.5,8.8c1.3,2,2.3,3.9,3.1,5.6l0.1,0c-0.2-2.3-0.3-4.4-0.3-7.1V131h2.1V148.3z M72.8,93.5l-2.4-3L16.2,24.3v66.3H10V7
		l2.6,3.2l54,66.4V10.3h6.1V93.5z M92,148.3l-1.8-5.4H84l-1.8,5.4h-2.3l5.9-17.3h2.7l5.9,17.3H92z M161.1,132.9h-5.3v15.4h-2.3
		v-15.4h-5.3V131h12.8V132.9z M182.4,90.5h-56.8V10.3H181v5.8h-49.3v68.5h50.7V90.5z M165,50.3c0,4.4-3.5,7.9-7.9,7.9
		c-4.4,0-7.9-3.5-7.9-7.9c0-4.4,3.5-7.9,7.9-7.9C161.4,42.3,165,45.9,165,50.3z M219.4,50.9c-0.2-21.4,13.8-41.5,41.3-41.5
		c10.6,0,21.2,4,29.2,12l-4.2,3.7c-6.9-6.9-15.9-10.2-25-10.2c-23.4,0-35.4,16.5-35.3,35.8c0.2,18.8,12.2,35.1,35.3,35.1
		c9.1,0,18.2-3.4,25.1-10.2l4.1,3.9c-8,8-18.7,12-29.2,12C233.6,91.5,219.5,72.5,219.4,50.9z M266.5,50.3c0,4.4-3.5,7.9-7.9,7.9
		c-4.4,0-7.9-3.5-7.9-7.9c0-4.4,3.5-7.9,7.9-7.9C262.9,42.3,266.5,45.9,266.5,50.3z M297.4,148.3c-0.3-0.5-0.7-2-1.2-4.1
		c-0.5-2.4-1.4-3.3-3.5-3.4h-2.1v7.5h-2.2v-17.1c1.1-0.2,2.7-0.4,4.3-0.4c2.4,0,3.9,0.4,5,1.4c0.9,0.8,1.4,2,1.4,3.3
		c0,2.3-1.4,3.8-3.3,4.4v0.1c1.3,0.5,2.1,1.7,2.5,3.5c0.6,2.4,1,4.1,1.3,4.7H297.4z M334.8,90.5h-6.2V10.3h6.2V90.5z M352.2,50.3
		c0-4.4,3.5-7.9,7.9-7.9c4.4,0,7.9,3.5,7.9,7.9c0,4.4-3.5,7.9-7.9,7.9C355.7,58.2,352.2,54.6,352.2,50.3z M367.5,148.3l-1.8-5.4
		h-6.1l-1.8,5.4h-2.3l5.9-17.3h2.7l5.9,17.3H367.5z M392.1,90.5h-6.2V10.3h6.2V90.5z M436.5,148.3h-9.6V131h2.2v15.4h7.4V148.3z
		 M496.9,148.6c-1.7,0-3.5-0.5-4.4-1.1l0.6-1.9c1,0.6,2.5,1.1,4,1.1c2.3,0,3.6-1.2,3.6-3c0-1.6-0.9-2.5-3.3-3.4
		c-2.8-1-4.6-2.5-4.6-4.9c0-2.7,2.2-4.7,5.6-4.7c1.8,0,3.1,0.4,3.8,0.8l-0.6,1.8c-0.6-0.3-1.7-0.8-3.3-0.8c-2.4,0-3.3,1.4-3.3,2.6
		c0,1.6,1.1,2.4,3.4,3.3c2.9,1.1,4.4,2.5,4.4,5.1C503,146.3,501,148.6,496.9,148.6z M503,90.5l-11.2-25.5l-21.6-48.9l-21.6,48.9v0.2
		l-11.1,25.3h-6.7l36-80.3l3.4-7.5l39.4,87.8H503z"/>
	<polygon points="66.7,76.7 12.7,10.3 10,7 10,90.5 16.2,90.5 16.2,24.3 70.4,90.5 72.8,93.5 72.8,10.3 66.7,10.3 	"/>
	<polygon points="131.7,16.1 181,16.1 181,10.3 125.6,10.3 125.6,90.5 182.4,90.5 182.4,84.6 131.7,84.6 	"/>
	<path d="M285.8,75.5c-6.9,6.8-16.1,10.2-25.1,10.2c-23.2,0-35.1-16.3-35.3-35.1c-0.1-19.3,11.9-35.8,35.3-35.8
		c9.1,0,18.1,3.3,25,10.2l4.2-3.7c-8-8-18.7-12-29.2-12c-27.5,0-41.5,20.1-41.3,41.5c0.1,21.7,14.2,40.6,41.3,40.6
		c10.6,0,21.2-4,29.2-12L285.8,75.5z"/>
	<rect x="328.6" y="10.3" width="6.2" height="80.3"/>
	<rect x="385.9" y="10.3" width="6.2" height="80.3"/>
	<polygon points="466.8,10.3 430.8,90.5 437.5,90.5 448.6,65.2 448.6,65.1 470.2,16.2 491.7,65.1 503,90.5 509.6,90.5 470.2,2.7 	
		"/>
	<ellipse transform="matrix(0.8944 -0.4472 0.4472 0.8944 -5.8958 75.5442)" cx="157.1" cy="50.3" rx="7.9" ry="7.9"/>
	<ellipse transform="matrix(0.9239 -0.3827 0.3827 0.9239 0.4488 102.7752)" cx="258.6" cy="50.3" rx="7.9" ry="7.9"/>
	<ellipse transform="matrix(0.9665 -0.2567 0.2567 0.9665 -0.8373 94.104)" cx="360.1" cy="50.3" rx="7.9" ry="7.9"/>
	<path d="M20.8,138.2c0,2.7,0.1,4.8,0.3,7.1l-0.1,0c-0.8-1.8-1.8-3.6-3.1-5.6l-5.5-8.8H9.9v17.3H12v-7.4c0-2.9-0.1-5-0.2-7.1l0.1,0
		c0.9,1.9,2,3.9,3.2,5.8l5.5,8.8h2.3V131h-2.1V138.2z"/>
	<path d="M85.8,131l-5.9,17.3h2.3l1.8-5.4h6.1l1.8,5.4h2.4L88.5,131H85.8z M84.5,141.1l1.7-5c0.3-1.1,0.6-2.1,0.9-3.1h0.1
		c0.3,1,0.5,2,0.9,3.2l1.7,5H84.5z"/>
	<polygon points="148.3,132.9 153.6,132.9 153.6,148.3 155.8,148.3 155.8,132.9 161.1,132.9 161.1,131 148.3,131 	"/>
	<path d="M230.2,141.1V131h-2.3v10.2c0,3.8-1.6,5.5-4.2,5.5c-2.3,0-4-1.6-4-5.5V131h-2.3v10.2c0,5.4,2.7,7.4,6.2,7.4
		C227.4,148.6,230.2,146.4,230.2,141.1z"/>
	<path d="M295.9,140.1L295.9,140.1c1.8-0.7,3.3-2.2,3.3-4.5c0-1.3-0.5-2.5-1.4-3.3c-1.1-1-2.6-1.4-5-1.4c-1.5,0-3.2,0.1-4.3,0.4
		v17.1h2.2v-7.5h2.1c2,0.1,3,1,3.5,3.4c0.5,2.2,0.9,3.6,1.2,4.1h2.3c-0.4-0.7-0.8-2.3-1.3-4.7C298,141.8,297.2,140.5,295.9,140.1z
		 M293,139.1h-2.3v-6.3c0.4-0.1,1.1-0.2,2.2-0.2c2.4,0,4,1,4,3.2C296.9,137.8,295.4,139.1,293,139.1z"/>
	<path d="M361.3,131l-5.9,17.3h2.3l1.8-5.4h6.1l1.8,5.4h2.4L364,131H361.3z M360,141.1l1.7-5c0.3-1.1,0.6-2.1,0.9-3.1h0.1
		c0.3,1,0.5,2,0.9,3.2l1.7,5H360z"/>
	<polygon points="429.1,131 426.8,131 426.8,148.3 436.5,148.3 436.5,146.4 429.1,146.4 	"/>
	<path d="M498.6,138.5c-2.4-0.9-3.4-1.7-3.4-3.3c0-1.2,0.9-2.6,3.3-2.6c1.6,0,2.7,0.5,3.3,0.8l0.6-1.8c-0.8-0.4-2.1-0.8-3.8-0.8
		c-3.4,0-5.6,2-5.6,4.7c0,2.4,1.7,3.9,4.6,4.9c2.3,0.9,3.3,1.8,3.3,3.4c0,1.7-1.3,3-3.6,3c-1.5,0-3-0.5-4-1.1l-0.6,1.9
		c0.9,0.6,2.7,1.1,4.4,1.1c4.1,0,6.1-2.3,6.1-5C503,141,501.5,139.6,498.6,138.5z"/>
</g>
</svg>
