<svg id="Layer_1" data-name="Layer 1" xmlns="http://www.w3.org/2000/svg" viewBox="0 0 512 512"><defs><style>.cls-1{fill:#8b7295;}</style></defs><path class="cls-1" d="M331.13,498.61c-3.47-2.19-4.83-5.22-4.79-9.43.16-20.4.12-40.81,0-61.21,0-4.11.74-7.61,5.14-9s6.93,1.44,9.19,4.73c10.21,14.85,20.48,29.66,31.34,45.36.2-2.06.41-3.15.39-4.23-.13-11.62-.3-23.23-.45-34.85,0-1.41-.1-2.83,0-4.23.38-4.46,3.21-7.28,7.14-7.23s6.75,2.88,6.87,7.41c.27,9.89.37,19.77.48,29.66.12,11,.15,22,.24,33,0,4.17-1.47,7.52-5.6,8.83s-7.24-.7-9.59-4.13q-13.47-19.57-27-39.11c-1-1.51-2.13-3-4-5.56v28.76c0,3.77-.22,7.55.05,11.3.32,4.33-1.06,7.63-4.75,9.93Z"/><path class="cls-1" d="M56,498.61c-4-1.38-8.12-2.38-11.87-4.2a39.81,39.81,0,0,1-20.94-47.05c5.24-18.27,23.69-30.73,42.46-28.67a40.09,40.09,0,0,1,5.19,78.86c-1.19.29-2.35.7-3.53,1.06Zm5.76-65.95a25.9,25.9,0,1,0,25.74,25.77A25.87,25.87,0,0,0,61.72,432.66Z"/><path class="cls-1" d="M203.91,498.61c-3.09-1-6.25-1.87-9.26-3.08-21.4-8.59-30.89-34.21-20.42-55,10.37-20.59,36.32-28.23,56-16.49,4.76,2.84,6.35,6.64,4.38,10.43s-6.24,4.79-10.91,2.08c-7.55-4.37-15.37-5.21-23.48-2a26,26,0,0,0-14.8,32.22c4.29,12.76,18.28,20.38,30.79,16.76,7.71-2.23,13.27-9.27,13.92-17.95-3.46,0-6.9.06-10.34,0-5-.11-8.23-3-8.15-7.18.08-4,3.2-6.84,7.93-6.91,6.12-.09,12.25-.13,18.37,0,4.89.11,7.37,2.82,7.51,7.74.54,19.44-9.35,32.32-30.19,39.33Z"/><path class="cls-1" d="M116.27,498.61c-3.43-2.8-4.22-6.44-4.18-10.76.16-19.78,0-39.56.08-59.34,0-8,2-10,10-10,4.71,0,9.42,0,14.13,0,12.67.15,23.28,8.56,25.14,19.91,2,12.13-4.41,22.56-16.69,27.18-.57.21-1.13.44-2.46,1,5.48,6.23,10.8,12.08,15.87,18.13,1.53,1.84,3.45,4.35,3.27,6.39-.22,2.59-2.4,5-3.73,7.49h-5.66l-25.79-28.5c0,6.79-.16,12.35,0,17.9.17,4.32-.77,8-4.41,10.6Zm10.35-46c4.1,0,7.69.22,11.24-.05,5.6-.44,9.6-4.53,9.75-9.54a10.19,10.19,0,0,0-9.6-10.21c-3.69-.33-7.42-.07-11.39-.07Z"/><path class="cls-1" d="M254.8,498.61c-5.21-3.92-5.8-5.88-3.48-12,7.69-20.18,15.45-40.33,23.07-60.54,1.63-4.33,3.95-7.6,9-7.5,4.78.1,7,3.27,8.58,7.42,7.57,20.23,15.25,40.41,22.88,60.62,2.3,6.1,1.71,8.05-3.49,12h-4.71c-2.18-3.65-5-7.08-6.37-11-1.44-4.24-3.53-5.44-7.78-5.2-6.72.37-13.48.27-20.21,0-3.17-.12-4.56.93-5.82,3.87-1.84,4.32-4.58,8.25-6.94,12.34Zm37.93-30.4-9.57-25.33c-3.49,9.19-6.5,17.1-9.63,25.33Z"/><path class="cls-1" d="M458.35,498.61c-8.6-2.18-16.56-5.49-22.94-12a40,40,0,0,1,48.75-62.48c2.1,1.27,4.46,3.59,4.87,5.77s-.95,5.77-2.66,6.71a9.87,9.87,0,0,1-8.12.1c-6.85-3.62-13.73-5.14-21.27-3.07a26,26,0,0,0-18,31.69c3.7,13.55,18.05,22.15,31,18.16,3.28-1,6.29-3.34,9-5.56,3.93-3.19,7.36-3.69,10.46-.83s2.94,7.12-.35,10.86c-5.2,5.91-12.2,8.51-19.45,10.65Z"/><path class="cls-1" d="M402.75,498.61c-3.38-2.59-4.33-6-4.3-10.21.13-19.91.05-39.81.08-59.71,0-1.72-.38-4,.52-5,1.76-2.05,4.31-4.73,6.53-4.73s4.76,2.68,6.52,4.73c.9,1.06.53,3.31.53,5,0,19.91-.05,39.81.08,59.71,0,4.18-.93,7.63-4.3,10.22Z"/><path class="cls-1" d="M275.36,252.66c9.91-10.36,18.76-20.31,28.35-29.48,24.08-23,51.06-41.52,83.18-51.77,8.9-2.84,12.92-10.42,10.32-18.23-2.66-8-10.51-11.42-19.53-8.51-34.88,11.28-64.64,31-91.16,55.85-9,8.46-17.37,17.69-25.9,26.69-4.07,4.3-3.93,4.43-8-.19-24.33-27.72-51.65-51.85-84.71-68.69-10.71-5.46-22.1-9.67-33.38-13.88a14,14,0,1,0-9.18,26.49c41.54,13.33,74.1,39.53,102.84,71.28,2.63,2.91,5.14,5.93,7.69,8.91a20.49,20.49,0,0,1,1.22,2c-6.69.78-12.92,1.72-19.19,2.22-28.77,2.27-57.43,1.72-85.74-4.58-30.52-6.79-58.1-19.11-78.88-43.55-17.45-20.51-26.88-44.78-32-70.83-7-35.68-6.47-71.49-.42-107.25,2.18-12.87,14.27-17,24.34-8.48C66.05,38.24,88,54.3,112.46,66.3c13.2,6.45,27.2,11.25,40.74,17,53.59,22.8,85.22,63.81,98.73,119.65,1.93,8,3.07,16.18,5.11,24.37.84-5.28,1.51-10.59,2.54-15.83,8.49-43.25,28.11-79.93,63.65-107.12,12.93-9.88,27-17.93,42.4-23.08C402.54,69,434.56,48.41,464.29,23.85c1.69-1.4,3.32-2.89,5-4.24,8.89-7,20.93-2.75,22.92,8.31a311,311,0,0,1,4.24,72.23c-1.26,22.84-5.06,45.18-13.08,66.69-16.57,44.38-49.06,70.48-94.2,82-28,7.14-56.36,8.91-85.05,6.93-8-.55-15.94-1.4-23.9-2.16C279.08,253.51,277.92,253.17,275.36,252.66Z"/><path class="cls-1" d="M232.07,348.89c0-6-.15-11.93,0-17.89a27.88,27.88,0,0,1,55.73.28c.21,11.77.23,23.54,0,35.3a27.87,27.87,0,0,1-55.7.19C231.92,360.82,232.08,354.85,232.07,348.89Zm41.68.3c0-5.65.1-11.29,0-16.93-.17-8.17-6.17-14.11-14-14-7.62.1-13.46,5.93-13.56,13.91q-.21,16.69,0,33.39a13.75,13.75,0,0,0,27.5.09C273.87,360.16,273.75,354.67,273.75,349.19Z"/><path class="cls-1" d="M217.87,349.22c0,5.49.16,11,0,16.47-.54,15.81-12.64,27.75-28,27.78a27.79,27.79,0,0,1-28-27.22c-.42-11.6-.41-23.23,0-34.82.54-15.65,12.73-27.28,27.92-27.31,15.37,0,27.51,11.86,28.08,27.68C218,337.6,217.87,343.41,217.87,349.22Zm-14.13-.37c0-5.49.15-11,0-16.47-.28-8.28-6.2-14.15-14-14.12s-13.69,5.92-13.84,14.24q-.28,16.23,0,32.47c.14,8.35,6,14.26,13.73,14.36,7.94.1,13.88-5.91,14.1-14.48C203.86,359.52,203.75,354.18,203.74,348.85Z"/><path class="cls-1" d="M350.58,372.35c.41-16.7,14.78-28.3,29.16-23.55,11.7,3.87,18.46,17.25,15.45,30.61-2.76,12.26-13.3,20-25,18.51C358.84,396.44,350.26,385.24,350.58,372.35Zm31.28.4c-.11-6-4.19-10.93-8.84-10.8s-8.38,5.15-8.29,11.23,4,10.94,8.72,10.78S382,378.62,381.86,372.75Z"/><path class="cls-1" d="M348.06,315.48c-.16,16.55-14.58,28.51-28.91,24-11.86-3.75-19-17.33-15.91-30.39,3-12.66,13.44-20.46,25.29-18.81C339.64,291.81,348.17,302.83,348.06,315.48Zm-31.68-1.29a50.74,50.74,0,0,0,1.35,5.88c1.29,3.41,3.48,6.05,7.44,6.11,4.21.06,6.44-2.76,7.82-6.29a12.32,12.32,0,0,0-1.92-12.78c-3.08-3.89-8.25-4.08-11.25-.16C318.12,309.19,317.33,312.12,316.38,314.19Z"/><path class="cls-1" d="M331.71,392.36c-5.33-.27-7.94-5.06-5.6-10.76,4.68-11.44,9.54-22.81,14.32-34.21q10-23.81,20-47.62c2.31-5.49,6.5-7.33,10.69-4.87,3.62,2.13,4.36,5.55,2.18,10.74Q359.59,338.33,345.84,371c-2.31,5.48-4.66,10.94-6.93,16.44C337.56,390.68,335.31,392.47,331.71,392.36Z"/><path class="cls-1" d="M133.43,318.09c-3.37,0-6,.12-8.65,0-4.41-.24-7.37-3.11-7.39-6.94a6.94,6.94,0,0,1,6.87-7c5.47-.28,11-.28,16.45,0,4.43.22,6.82,2.89,6.83,7.39q0,37.15,0,74.32c0,4.8-2.9,7.65-7.11,7.56s-6.93-3.13-6.94-8.34c-.07-20.23,0-40.46,0-60.68C133.43,322.53,133.43,320.67,133.43,318.09Z"/></svg>