<svg id="Layer_1" data-name="Layer 1" xmlns="http://www.w3.org/2000/svg" viewBox="0 0 512 512"><defs><style>.cls-1{fill:#8b7295;}</style></defs><path class="cls-1" d="M194.12,496.62c-5-2.83-6.74-6.95-6.67-12.77.29-23.16.11-46.32.13-69.48,0-7.89,3.53-11.54,11.42-11.52,7.49,0,15.07-.31,22.47.66,13.47,1.77,23.73,12,25.23,24.1,1.73,13.85-4.94,25.3-18.14,31.16-.56.24-1.15.42-2.56.94,2.8,3.17,5.31,6,7.84,8.87,3,3.4,6.06,6.76,9,10.18,6.43,7.39,5.59,12.8-2.72,17.86h-5.64L206.37,467c0,6.21-.3,11.66.08,17.05.41,5.79-1.59,9.93-6.7,12.62Zm12.59-54.06c5.2-.5,9.95-.45,14.43-1.51a9.22,9.22,0,0,0,6.86-10,9.88,9.88,0,0,0-8.5-8.72c-4.13-.42-8.34-.09-12.79-.09Z"/><path class="cls-1" d="M279.62,496.62c-5-3.07-6.62-7.52-6.56-13.39.26-22.54.1-45.09.11-67.64,0-9,3.17-12.16,12.1-12.18,9.24,0,18.48-.06,27.71,0,6.44.05,10.66,3.86,10.65,9.35s-4.43,9.42-10.66,9.5c-6.72.09-13.43,0-20.46,0v18.12c6.2,0,12.25-.1,18.29,0,5.19.11,9,2.83,10,6.93,1.52,5.83-1.91,11.24-8.06,11.88-4.81.5-9.69.24-14.54.3-1.84,0-3.68,0-5.76,0v18.23c6.34,0,12.4,0,18.47,0,7.31,0,10.42,1.67,12.09,6.48,1.6,4.62,0,8-5.84,12.35Z"/><path class="cls-1" d="M356.67,496.62c-5.18-2.37-7-6.44-6.95-12.06.16-23,0-46,.07-69,0-9.19,3-12.15,12-12.17,9.23,0,18.46-.07,27.69,0,6.6.06,10.45,3.61,10.43,9.37s-4,9.4-10.49,9.48c-6.69.09-13.38,0-20.36,0v18.12c6.28,0,12.47-.13,18.66,0,5.28.16,8.9,3.07,9.81,7.78.83,4.31-.78,7.87-4.65,9.8a17.83,17.83,0,0,1-7.21,1.45c-5.44.21-10.88.06-16.61.06v18.24q9.35,0,18.62,0c7,0,10.72,2.07,12,6.67,1.35,4.86-.5,8.4-6.36,12.16Z"/><path class="cls-1" d="M118,496.62c-4.62-3.25-5.89-7.67-5.82-13.25.25-22.54.09-45.09.11-67.64,0-9.64,2.88-12.5,12.66-12.53,8.77,0,17.54-.13,26.3.08,5.89.14,9.59,3.56,10,8.54.43,5.93-3.64,10.26-10.06,10.39s-13.05,0-19.8,0v17.7c6.18,0,12.37-.13,18.54,0,4.36.13,7.29,2.49,8.6,6.71,1.19,3.87.21,7.43-3,9.63a16.05,16.05,0,0,1-7.79,2.46c-5.29.37-10.62.11-16.63.11,0,8.62-.25,17,.09,25.39.22,5.64-1.68,9.69-6.63,12.34Z"/><path class="cls-1" d="M496.67,303c-6.65,11.64-13.34,23.26-19.88,35a9.8,9.8,0,0,0-.73,4.52c-.08,10.34,0,20.68-.09,31,0,6.45-3.68,10.63-9.25,10.71-5.73.08-9.48-4.2-9.49-10.93,0-10.33.09-20.67-.07-31a13.75,13.75,0,0,0-1.63-6.14c-5.62-10.3-11.67-20.36-17-30.78-1.39-2.72-2-7-.77-9.56s4.9-4.77,7.88-5.45c3.69-.85,6.83,1.66,8.77,5.06,3.94,6.9,7.85,13.82,12.27,21.63,4.08-7.23,7.81-13.78,11.48-20.38,1.84-3.31,4.2-5.75,8.24-6.17,4.92-.52,7.65,2.59,10.29,5.94Z"/><path class="cls-1" d="M289.11,106.07c4.44,2.85,8.8,5.31,12.76,8.29s7.58,6.52,11.93,10.33c3.06-4.33,6.15-8.72,9.28-13.1a9.24,9.24,0,0,1,10.29-3.89c3.85.92,6.52,3.68,6.78,7.52A13.75,13.75,0,0,1,338,123c-4,6.17-8.43,12-12.81,18.11,10.57,18.71,15.69,39.16,18.86,60.36,5,33.22-14.35,62.37-46.72,69A54.82,54.82,0,0,1,260,265a7.28,7.28,0,0,0-7.73,0,58.08,58.08,0,0,1-84.17-42.68c-1.93-12.37.26-24.67,2.76-36.8,3-14.6,7.54-28.71,14.92-41.75,1.37-2.43.74-3.77-.81-5.7-17.42-21.67-29.47-46-35.34-73.21-2.2-10.15-3.12-20.44-.6-30.7,3.92-15.95,17.37-22.73,32.49-16.25,12.31,5.28,21.28,14.7,29.42,24.94C223.83,59,233.21,77.09,240,96.6c.36,1,.71,2.07,1.1,3.09.11.27.35.48.23.31h29.32c3.52-8.3,6.91-17.19,11-25.73C289.55,57.8,299.47,42.64,312.84,30c6.64-6.28,13.93-11.63,23.07-13.85a22,22,0,0,1,27.34,18.26c.84,5.32-1.74,9.83-6.35,11.09-5.12,1.4-9.5-.86-11.65-6-2.5-6-3.74-6.83-9.2-3.17a83.39,83.39,0,0,0-15.34,12.93C305.77,65.69,296,85.1,289.11,106.07Zm-33,118.45c2.7-3.16,4.38-5.44,6.38-7.39,4.47-4.32,9.87-4.38,13.73-.37,3.57,3.7,3.44,9.31-.46,13.49-2.67,2.86-5.55,5.53-8.26,8.34-3.57,3.7-2.84,7.68,1.76,10,22.32,11.2,50.11-1.53,55.28-26,1.51-7.14,1-15,.08-22.31-2.32-19.09-8-37.1-18.2-53.67-23.07-37.54-76.3-37.16-99.14-2-13.77,21.19-20.4,44.6-20.62,69.58-.24,28.64,30.56,47.13,56.26,34.44,4.85-2.39,5.5-6.35,1.67-10.28-2.95-3-6.12-5.87-8.87-9.06a9.29,9.29,0,0,1,.59-12.75,8.86,8.86,0,0,1,12.68-.11C251.26,218.52,253.12,221.1,256.09,224.52ZM223,105.42c-5.89-18-14.16-35.65-26.88-50.71-6-7.06-13.27-13.16-20.66-18.78-4.68-3.56-8-1.59-8.37,4.37a74.54,74.54,0,0,0,.43,16.36c3.27,21,12.06,39.93,23.6,57.63,2.33,3.59,5,7,7,9.82Z"/><path class="cls-1" d="M142.67,347.14c6.25,7.14,12.43,13.72,18,20.8,1.8,2.31,3.25,6.23,2.56,8.8-.74,2.76-3.79,5.56-6.54,6.95-3.46,1.75-7,.06-9.63-2.88-6.65-7.48-13.25-15-19.88-22.51-.92-1-1.86-2.06-3.89-4.3,0,5,0,8.78,0,12.53a78.28,78.28,0,0,1-.4,9.82,8.92,8.92,0,0,1-8.59,7.87,9.16,9.16,0,0,1-9.65-7.19,20.73,20.73,0,0,1-.49-5.1q0-34.74,0-69.46c0-8.92,3.55-12.45,12.57-12.4,7,0,14.14-.35,21.07.58,14.53,2,24.31,12.14,26,26.06,1.45,11.75-6,23.57-18.48,29.27C144.63,346.29,144,346.57,142.67,347.14Zm-19-17.39c5.07-.5,9.93-.46,14.5-1.57s6.85-5.41,6.53-9.72a9.56,9.56,0,0,0-8.34-8.83c-4.11-.45-8.31-.1-12.69-.1Z"/><path class="cls-1" d="M251.38,326.62q0,11,0,22.08c0,17.89-10,30.49-27.57,34.68s-36.77-6-42-22.4a32,32,0,0,1-1.61-9.18c-.15-17.07-.08-34.14-.08-51.21,0-4.28,1.71-7.62,5.65-9.51,3.42-1.63,6.7-1.06,9.7,1.18,3.27,2.44,3.65,6,3.64,9.68,0,15.19.21,30.39-.11,45.57-.15,7.36,2,12.88,8.89,16s13,2,19-2.13c4.12-2.87,5.64-6.85,5.63-11.71,0-16.6-.07-33.21,0-49.8,0-5.63,4.17-9.77,9.29-9.77s9.2,4.19,9.47,9.71c.06,1.25,0,2.5,0,3.76Z"/><path class="cls-1" d="M291.73,309.69v18.53c4.43,0,8.75,0,13.06,0,6.86.09,10.94,3.73,10.82,9.56-.12,5.63-4.2,9.23-10.71,9.32-4.21.06-8.42,0-13,0v18.11c4,0,8.18-.07,12.34,0a28.08,28.08,0,0,1,6.49.62,9,9,0,0,1,6.9,9.4c-.23,4.47-3.18,8.45-7.77,8.64-9.83.41-19.7.44-29.53,0-4.87-.21-7.91-4.16-7.93-9.5q-.18-36.89,0-73.77c0-6.11,4.15-9.69,10.34-9.76,8.3-.08,16.6-.1,24.9,0,5.92.08,10.06,4.17,10,9.56s-4,9.09-9.78,9.22C302.56,309.78,297.27,309.69,291.73,309.69Z"/><path class="cls-1" d="M15.33,337.19c.3-32.89,33.87-56,64-43.89,5.35,2.15,7.61,5.72,6.86,10.83a8.85,8.85,0,0,1-8.22,7.68,19.34,19.34,0,0,1-6.35-1.2C56,305.8,39.77,314.29,35.52,329.56c-4.32,15.49,4.78,31.38,20.74,34.78,4.9,1.05,10.54.21,15.52-1.06,6.58-1.67,11.81-.47,13.88,4.69,2.21,5.49-.42,10.45-7,13.2C53.15,391.85,22,374.66,16.6,346.92,16,343.72,15.74,340.44,15.33,337.19Z"/><path class="cls-1" d="M389.62,309.53c-2.74-.27-5.09-.32-7.36-.76a9.07,9.07,0,0,1-7.56-8.91c.09-4.5,2.23-8,6.73-9.06a42.19,42.19,0,0,1,9.29-.72c6.89-.1,13.78-.05,20.67,0,7.79,0,12,3.3,12.15,9.34s-3.76,9.42-11.65,9.81c-.91.05-1.83.2-3.37.37v5.09c0,19.11,0,38.22,0,57.33a19.48,19.48,0,0,1-1,6.87c-1.61,4.1-6.07,6.05-10.47,5.09-4.6-1-7.38-4.61-7.4-10-.06-19.74,0-39.47,0-59.2Z"/><path class="cls-1" d="M352.8,365.19c3.32,0,6-.09,8.6,0,5.88.25,10.16,4.33,10.15,9.56s-3.93,9.14-9.71,9.38c-5.94.25-11.89.28-17.82,0-6.84-.28-10.12-3.56-10.15-10.27q-.17-36.6,0-73.2c0-6.4,4-10.65,9.47-10.58s9.42,4.45,9.44,10.72c.07,19.55,0,39.11,0,58.66Z"/><path class="cls-1" d="M349.24,87.89a9.25,9.25,0,0,1-9.49-9.37,9.75,9.75,0,0,1,9.62-9.43,9.42,9.42,0,0,1,9.15,9.31A9.08,9.08,0,0,1,349.24,87.89Z"/><path class="cls-1" d="M284.32,183.5a9.36,9.36,0,0,1-9.4,9.5,9.81,9.81,0,0,1-9.29-9.32,9.5,9.5,0,0,1,9.57-9.38A9.1,9.1,0,0,1,284.32,183.5Z"/><path class="cls-1" d="M226.75,183.55a9.07,9.07,0,0,1,9.14-9.27,9.19,9.19,0,0,1,9.33,9.14,9.36,9.36,0,0,1-9.43,9.59A9.25,9.25,0,0,1,226.75,183.55Z"/></svg>