<svg id="Layer_1" data-name="Layer 1" xmlns="http://www.w3.org/2000/svg" viewBox="0 0 512 512"><defs><style>.cls-1{fill:#8b7295;}</style></defs><path class="cls-1" d="M39,283.5c6.76-14.91,13.51-29.82,20.44-45.1-3.71-2.08-7.84-4.44-12-6.72s-6.77-5.54-6.23-10.52c.5-4.72,3.3-7.45,8.85-8.85Q92.35,201.6,134.68,191c9.34-2.34,16.44,1.4,19.68,10.53,10.1,28.49,20.09,57,30.17,85.51,1.64,4.64,1.55,8.89-2.34,12.39-3.62,3.26-7.48,3.31-12.88.35-3.69-2-7.37-4.09-11.53-6.4l-12.42,24.3,11.35.61c2,.11,4,.06,5.9.35,4.18.62,6.54,3.43,6.2,7.14-.33,3.55-3.34,6-7.51,5.83-6.33-.28-12.67-.62-19-1.16-2.27-.19-3.54.26-4.63,2.44-8.13,16.22-16.61,32.27-24.6,48.56-8.31,16.94,2.75,34.85,21.69,35.78,22.8,1.11,45.59,2.36,68.38,3.58,6.27.34,8.74-1.94,9.21-8.12,1.55-20.07,3.23-40.14,4.85-60.21.28-3.51.63-7,.79-10.53.19-4.37-2.32-7.3-6.68-7.64-6.6-.53-13.25-.58-19.81-1.38-5.6-.68-7.92-6.37-4.32-10.23a8.29,8.29,0,0,1,5.48-2.46,195.54,195.54,0,0,1,20.25,1.14c11.34,1.31,18.67,10.17,18,21.63s-1.75,23-2.69,34.55c-1,12.49-2.15,25-3.07,37.48-.82,11.23-9.49,19.45-20.79,18.9-24.35-1.2-48.7-2.48-73-4.05-12.19-.79-21.92-6.71-28.06-17.18Q73.16,361.29,43.71,309.53c-2.18-3.82-3.17-8.32-4.71-12.5Zm60.38,96.72c.92-1.75,1.58-3,2.21-4.23q23.37-46.32,46.73-92.63c2.87-5.7,6-6.69,11.58-3.67,3.19,1.74,6.36,3.51,9.79,5.41a6.53,6.53,0,0,0-.09-1.51Q156,244.86,142.34,206.12c-1-2.82-2.51-3.21-5.15-2.53-15.5,3.95-31,7.78-46.54,11.68-10.14,2.56-20.26,5.18-31.46,8l10.68,6c5.64,3.21,6.44,5.89,3.47,11.76-5.64,11.17-11.13,22.43-17,33.45-6,11.19-5.66,21.84.78,32.78,13.06,22.18,25.79,44.55,38.67,66.84C96.85,376.1,98,378,99.38,380.22Z"/><path class="cls-1" d="M336.23,324.65H362.9c-.71-1.72-1.29-3.25-2-4.75q-12.17-27.37-24.35-54.74c-5.51-12.44-1.09-23.4,11.42-28.58q32.16-13.31,64.33-26.6c12.62-5.22,22.76-1.17,28.34,11.28,2.81,6.29,5.66,12.57,8.4,18.9,1.72,4,.44,7.82-2.95,9.33s-7,0-8.85-4.14c-2.94-6.38-5.71-12.85-8.62-19.24-2.41-5.3-5.46-6.56-10.86-4.34q-32.57,13.38-65.07,26.9c-5.58,2.32-6.86,5.54-4.41,11.08,9.17,20.7,18.43,41.35,27.55,62.07,1,2.3,2.33,3,4.79,3,17.48-.12,35,0,52.44-.13,13.95-.09,23.72-7.89,25.71-21.28.62-4.22-.44-9-1.78-13.12-1.74-5.45-4.58-10.56-6.85-15.86-1.73-4.05-.46-7.89,2.9-9.3,3.56-1.49,7,0,8.9,4.09,2.54,5.49,5.14,11,7.38,16.58,4.62,11.59,4.08,23.11-2.66,33.61q-31.92,49.8-64.46,99.2c-8,12.12-20.11,17.71-34.58,17.89-11.82.15-23.65,0-36.06,0-.26,4.94-.65,9.65-.71,14.37s-1.8,8.48-6.43,10.38c-4.17,1.71-8.09.7-11.67-3.39q-29.4-33.56-58.67-67.22c-5.31-6.14-5-14.46.56-20.37q31.85-33.62,63.85-67.09c3.7-3.88,7.65-4.75,11.83-2.84,4.4,2,6,5.62,5.89,10.27S336.23,319.65,336.23,324.65ZM318,444.24c.33-4.87.61-8.67.83-12.46.34-6.18,2.1-8,8.25-8,12.83-.08,25.66-.16,38.49-.08,12.29.08,21.54-4.91,28.22-15.36,14.33-22.42,29-44.65,43.45-67,.72-1.11,1.31-2.3,2.38-4.19-2.73,0-4.66,0-6.59,0q-50.74.27-101.5.55c-6.94,0-9.34-2.56-9-9.57.18-3.3.41-6.6.67-10.69-1.2,1-1.75,1.36-2.2,1.83q-27.87,29.24-55.77,58.45c-2.33,2.42-1.94,4.08.11,6.39,9.36,10.54,18.57,21.21,27.84,31.83C301.24,425.15,309.3,434.33,318,444.24Z"/><path class="cls-1" d="M276.09,170.92c8.6,1.58,16.05,2.9,23.48,4.33,5.05,1,7.79,4.68,6.29,8.53-1.27,3.26-3.61,5-7.24,4.35-10.93-2-21.86-4-32.77-6.1a9.08,9.08,0,0,1-7.74-7.88,9.5,9.5,0,0,1,4.75-10.43c4.06-2.5,8.19-4.9,12.66-7.57l-14.8-22.78c-1.15,1.66-2,2.86-2.85,4.11q-16.35,25.16-32.69,50.31c-7.36,11.3-19.14,13.7-30.18,6.12q-28.75-19.71-57.45-39.51c-11.42-7.89-13.46-18.25-5.93-29.89q18.47-28.56,37-57.07c7.9-12.17,19-18.34,33.6-18.3q56.67.13,113.35,0c15.77,0,27.91,6.63,36.54,19.77,5.72,8.71,11.39,17.45,17.09,26.18.76,1.15,1.59,2.26,2.55,3.63,4.28-2.53,8.41-4.89,12.46-7.38s8.2-3,12.18,0c4.15,3.17,4.53,7.37,3.17,12.15-8,27.83-15.84,55.69-23.81,83.53-2.78,9.73-9.13,13.68-19.09,11.93q-13.92-2.44-27.79-5.16c-4.47-.88-6.65-3.86-5.9-7.66s4-5.76,8.4-5c9.13,1.64,18.26,3.28,27.34,5.14,2.69.55,4-.28,4.67-2.74q10.74-37.9,21.51-75.79a6.11,6.11,0,0,0-.15-1.62c-2.47,1.43-4.76,2.73-7,4.07-9.48,5.65-10.5,5.42-16.42-3.66-6.37-9.79-12.88-19.5-19.1-29.39C335.61,66.75,326.29,61.84,314,61.9c-27.91.12-55.82,0-84.64,0,3.18,4.74,6,9,8.88,13.22,4,5.9,4,9.46.06,12.06-3.69,2.41-7.05.91-10.79-4.81-2.15-3.3-4.22-6.67-6.53-9.86-10.25-14.15-30.41-14.27-40.14.18-13.28,19.75-26.05,39.83-39,59.82-2.7,4.17-1.94,7.73,2.15,10.56q29.19,20.17,58.46,40.26c4.85,3.33,8.45,2.57,11.73-2.45,12.38-19,24.68-38,37.12-57,1.31-2,1.15-3.4-.14-5.2-1.89-2.63-3.63-5.37-5.31-8.14-2.34-3.87-1.65-7.57,1.65-9.58s6.71-1.25,9.1,2.39q16.54,25.26,32.92,50.64c2.79,4.32,1.91,7.47-2.54,10.3C283.8,166.37,280.52,168.26,276.09,170.92Z"/></svg>