<svg id="Layer_1" data-name="Layer 1" xmlns="http://www.w3.org/2000/svg" viewBox="0 0 512 512"><defs><style>.cls-1{fill:#8c7296;}</style></defs><path class="cls-1" d="M239.56,497c-8.16-1.21-16.35-2.2-24.46-3.67C158.29,483,111.28,455.48,73.75,411.83c-30.42-35.39-49.68-76.3-55.49-122.6-10-80,14.05-148.77,71-205.91,2.53-2.54,5.27-4.53,9.15-2.76,5.22,2.37,5.58,7.79,1.27,12.74-10,11.44-20.63,22.4-29.36,34.72-21.61,30.5-34.17,64.68-38.54,101.9a226.21,226.21,0,0,0,135.87,234.7,221.44,221.44,0,0,0,111,17.08A226.6,226.6,0,0,0,475.85,311.4q18.86-75.31-12.53-146.68c-.56-1.29-1.16-2.56-1.77-3.83a5.71,5.71,0,0,0-.69-.86c-3.4,1.73-6.77,3.62-10.28,5.2s-6.94,2.75-10.42,4.1c47.39,103.27,2.61,209.8-75.34,258.93C284.57,478.84,178.77,467,112,399,44.17,330,34,224.66,87.5,143.81c50.87-76.93,156-117.12,255.74-71.23l9.4-21a202.75,202.75,0,0,0-50.19-16.83c-63.09-12.17-121.39-.52-174.76,35.47-2,1.33-4.78,2.88-6.74,2.41a10.16,10.16,0,0,1-6-5c-1.47-3.06,0-6.21,3-8,10.69-6.46,21.11-13.5,32.25-19.09,37.41-18.77,77.28-26.58,119-24.45a236.83,236.83,0,0,1,88.15,21.88c1.55.71,3.11,1.4,4.85,2.19a80.69,80.69,0,0,1,41.21-22.86c42.49-9.24,86.24,21,92.55,64.1a20,20,0,0,0,.94,3.06v18.79c-.78,3.3-1.52,6.62-2.36,9.9a79.9,79.9,0,0,1-22,37.49,239.42,239.42,0,0,1,21,65.39c1.34,8.11,2.27,16.29,3.39,24.44v32.89c-1,7.56-1.83,15.16-3.13,22.67-8.73,50.47-31,94.07-67.28,130.23-35.73,35.64-78.51,58.19-128.3,67.06-8.26,1.47-16.6,2.49-24.91,3.72Zm18.6-429.56c-30.68.15-58.75,6.5-85.26,19.61C99.76,123.25,55.79,204,70.41,288.15c8.68,49.9,33.58,90.23,74.24,120.18,42.85,31.57,91.07,42.85,143.63,34.15,40.46-6.7,75.05-25.16,103.5-54.58Q439.14,339,444.66,270.74c2.69-33.68-3.65-65.59-17.93-96.08-1.14-2.44-2.55-2.91-5-3-5.62-.14-11.33-.14-16.81-1.21C366.65,163,340.68,131,341.15,91.92c.05-3.33-1-5-3.91-6.33A191.3,191.3,0,0,0,258.16,67.44Zm97.08,26.09c-.12,34.91,28.56,63.93,63.32,64.08,35.06.14,64.17-28.77,64.19-63.76C482.77,59,454,30.13,419.11,30S355.36,58.69,355.24,93.53Z"/><path class="cls-1" d="M263.76,265V375l28-27.42c-7.44-10.27-11.59-22.29-10.72-35.51,1.42-21.83,10.74-39.36,30.22-50.35,6.48-3.65,13.58-6.28,20.52-9.06,4.44-1.79,8.34.12,9.87,4.25,1.28,3.48-.63,7.07-4.77,8.94-6.82,3.08-14,5.61-20.39,9.35-18.83,10.94-26.67,37.54-17.27,57.14.8,1.67,1.82,3.23,3.29,5.82,4.78-5,9.16-9.6,13.59-14.16,3.17-3.25,6.13-6.8,9.68-9.57,5.07-4,6.43-9.15,6.74-15.09a120.14,120.14,0,0,1,1.27-12.13c.83-5.29,4.14-8,8.48-7.33s6.46,4.29,5.78,9.61c-.06.46-.07.92-.19,2.63,4.63-4.64,8.39-8.83,12.63-12.48,2-1.68,4.93-3.32,7.25-3.08,2.06.21,4.94,2.76,5.47,4.79a9.3,9.3,0,0,1-2,7.44c-7.67,8.26-15.75,16.13-23.75,24.08-2.76,2.75-5.69,5.34-9.64,9h4.36c4.63-.05,7.94,2.56,8.26,6.51s-2.7,7.22-7.18,7.83c-3.87.52-7.78.8-11.67,1.17-10,.95-11.92,2-18.6,10.8,13.32,8.34,27.14,8.46,41.22,2.73a43.2,43.2,0,0,0,23.56-22.38c8.91-18.94,14.07-39,18.6-59.3,1.39-6.2,2.55-12.46,4-19.66-10.55,2.33-20.36,4.5-30.19,6.65-6.41,1.41-10.66-1.48-10.39-7a6.62,6.62,0,0,1,5.64-6.58c12.35-2.72,24.69-5.48,37.13-7.7,7.64-1.37,13.88,4.22,12.56,11.72-5.52,31.4-11.34,62.87-26.45,91.38-16.16,30.48-55.36,40-84.52,21.4-.52-.33-1.08-.59-2.48-1.36-2.28,2.47-4.61,5.15-7.1,7.67-9.13,9.26-18.22,18.55-27.52,27.62a11,11,0,0,0-3.63,9.09c.28,6.09.15,12.21,0,18.32-.1,5.51-2.87,8.66-7.21,8.52-4.17-.13-6.68-3.14-6.77-8.47-.11-6.74.16-13.48-.16-20.2a10.15,10.15,0,0,0-2.53-6.09c-11-11.36-22.24-22.49-33.33-33.77-1.72-1.75-2.92-2.58-5.47-1-30.35,19.13-69.43,7.79-85.49-24.82-9.31-18.9-14.52-39.17-19.13-59.6-2-8.83-3.75-17.71-5.45-26.61s4.13-15.38,12.7-13.83c27.5,5,54.76,11,80.8,21.59,20.74,8.46,34.17,23,39.16,45.07,3.18,14,1.49,30.56-9.47,46.2l28,27.63V265c-1.94-.45-4.16-.93-6.36-1.47-24.88-6.12-44.54-28.77-48.45-54.17-2.59-16.86,2.26-31.88,8.89-46.67,11.75-26.21,27.26-50.25,43.65-73.74,5-7.2,13.71-7.8,18.54-.89,19.64,28.08,38.31,56.74,50.2,89.22,12.9,35.2-8.3,75-41.55,85.13C270.74,263.44,267.38,264.13,263.76,265Zm.1-15c2.06-.36,3.29-.47,4.48-.79,25.25-6.88,42.1-35.89,35.37-61.2-5.16-19.39-14.92-36.71-25.11-53.76-6.87-11.48-14.34-22.61-21.92-34.49-3.08,4.52-5.68,8.19-8.12,12-13.9,21.38-27.4,43-36.59,66.93-8.66,22.61-3.85,42.4,12.87,59.36a39.92,39.92,0,0,0,23.94,11.9c.78-7,1.15-13.12-4.36-18.21-3-2.73-5.14-6.28-7.68-9.47-3.65-4.58-3.88-8.73-.66-11.64,3.54-3.19,7.3-2.46,11.69,2.24.16.17.55.13,1.36.3v-4.6c0-11.43,0-22.87,0-34.3a26.63,26.63,0,0,1,.39-5.13c.77-3.67,3.16-5.78,6.91-5.79s6.38,2,6.9,5.75a110.26,110.26,0,0,1,.48,11.23c.05,1.57.15,3.15.26,5.34,5.44-5.69,9.13-6.48,12.74-3.26,3.4,3,3,7.06-1.19,12.36-3.3,4.18-6.64,8.32-9.87,12.55-.81,1.07-1.81,2.41-1.82,3.63C263.81,223.75,263.86,236.56,263.86,250Zm-52.88,87c5.45-8.54,7.85-17.9,6.42-28-2.58-18.17-11.92-31.7-29.29-38.14-15.76-5.84-31.94-10.61-48.1-15.31-8.74-2.54-17.81-3.93-27.33-6,.78,4.22,1.34,7.57,2,10.9,4.55,22,9.7,43.91,18.85,64.6,3.45,7.8,7.8,14.89,14.92,20.09,15.94,11.65,37,12.93,51.49,2.68-4.5-5.18-8.56-10.64-16.65-10.36-4.33.15-8.71-.75-13-1.25-4.84-.55-8-3.8-7.77-7.79s3.66-6.72,8.61-6.6c.82,0,1.64,0,3.2,0-1.65-1.74-2.69-2.87-3.77-4-9.6-9.66-19.28-19.26-28.8-29-4.44-4.55-2.94-11.41,2.89-12.35,2.3-.37,5.48,1,7.39,2.64,4.41,3.72,8.28,8.07,13.31,13.11-.38-2.28-.56-3-.63-3.79-.41-4.59,2-8.06,6-8.69s7.24,1.75,8.27,6.42a43.44,43.44,0,0,1,.6,5.11c.93,9.55,1.33,18.9,10.31,25.69C197.38,322.79,203.72,330.1,211,337.08Z"/><path class="cls-1" d="M408.05,102.55c10.86-10.91,21.14-21.2,31.36-31.56,2.85-2.89,6-4,9.71-2,4.53,2.4,5,7.69.91,11.89-6.74,7-13.68,13.76-20.54,20.63-4.32,4.31-8.54,8.72-13,12.91-5.49,5.2-11.13,5.21-16.61.05-4.1-3.86-8.07-7.86-11.95-11.94-3.59-3.78-3.67-7.64-.49-10.78,3-2.92,7.31-2.75,10.84.68C401.54,95.55,404.58,98.92,408.05,102.55Z"/></svg>